<svg width="100%" height="100%" viewBox="0 0 80 98" version="1.1" xmlns="http://www.w3.org/2000/svg" style="fill-rule: evenodd; clip-rule: evenodd; stroke-linecap: round; stroke-miterlimit: 1.5;">
  <g transform="matrix(0.905613,0,0,0.905613,0.257176,0.0133242)">
    <path d="M37.108,13.467L50.3,13.467L59.507,1.237L77.371,5.497L85.616,27.208L72.836,39.576C72.836,39.576 71.737,46.034 72.011,54.966L85.753,67.746L42.879,106.085L1.38,67.883L14.022,56.066C14.022,56.066 14.572,43.011 13.61,39.163L0.967,26.659L9.075,6.459L28.725,1.649L37.108,13.467Z" style="fill: none; stroke: currentcolor; stroke-width: 2.5px;" />
    <g transform="matrix(0.989156,0,0,0.977277,1.01518,1.14578)">
      <path d="M4.912,16.83C4.912,16.83 46.04,-3.848 80.943,18.414C80.943,18.414 66.103,30.231 74.073,66.234L43.154,92.756L13.61,66.372C13.61,66.372 20.263,31.736 4.912,16.83Z" style="fill: none; stroke: currentcolor; stroke-width: 3.12px;" />
    </g>
    <g transform="matrix(1,0,0,0.98411,0,1.00877)">
      <path d="M6.189,31.606C6.189,31.606 9.35,44.935 5.64,63.486" style="fill: none; stroke: currentcolor; stroke-width: 2.07px;" />
    </g>
    <g transform="matrix(0.864571,0,0,0.979856,10.9044,1.29272)">
      <path d="M81.905,30.644C81.905,30.644 78.607,45.759 82.18,64.173" style="fill: none; stroke: currentcolor; stroke-width: 2.22px;" />
    </g>
    <g transform="matrix(1,0,0,1,0.393999,-0.50657)">
      <path d="M74.073,65.96C74.073,65.96 75.447,69.945 78.333,74.205" style="fill: none; stroke: currentcolor; stroke-width: 2.05px;" />
    </g>
    <g transform="matrix(1,0,0,1,0.562855,-0.112571)">
      <path d="M13.472,66.372C13.472,66.372 10.999,71.044 7.976,74.205" style="fill: none; stroke: currentcolor; stroke-width: 2.05px;" />
    </g>
  </g>
</svg>
