<svg viewBox="0 0 30 35" width="100%" height="100%" style="fill-rule:evenodd;clip-rule:evenodd;stroke-linejoin:round;stroke-miter-limit:2px">
  <g transform="matrix(1,0,0,1,-242.754,-699.73)">
    <path d="M257.751,699.73L272.749,708.389L272.749,725.706L257.751,734.365L242.754,725.706L242.754,708.389L257.751,699.73ZM261.446,726.642C258.116,726.537 251.105,725.486 251.048,718.487C250.972,709.305 261.283,711.111 261.283,711.111C261.283,711.111 262.006,709.853 262.518,708.964C262.614,708.796 262.795,708.697 262.988,708.705C263.181,708.713 263.353,708.828 263.434,709.003C264.162,710.568 265.641,713.747 266.264,715.085C266.332,715.232 266.328,715.402 266.253,715.544C266.178,715.687 266.04,715.787 265.88,715.813C264.467,716.047 261.175,716.592 259.477,716.873C259.282,716.905 259.085,716.823 258.971,716.661C258.857,716.499 258.845,716.286 258.941,716.113C259.402,715.282 260.004,714.197 260.004,714.197C252.478,713.519 255.639,720.669 255.639,720.669C258.406,723.809 262.076,723.148 263.989,722.492C263.989,722.492 269.987,712.702 271.342,710.491C271.414,710.374 271.436,710.234 271.404,710.1C271.372,709.967 271.289,709.852 271.172,709.781C269.086,708.503 260.218,703.068 258.132,701.79C257.889,701.641 257.571,701.718 257.422,701.961C255.669,704.822 245.913,720.743 244.16,723.604C244.011,723.847 244.087,724.165 244.33,724.314C246.416,725.592 255.285,731.027 257.37,732.305C257.613,732.454 257.931,732.377 258.08,732.134C258.923,730.76 261.446,726.642 261.446,726.642Z" style="fill:currentcolor"></path>
  </g>
</svg>
