<svg width="100%" height="100%" viewBox="0 0 128 112" version="1.1" xmlns="http://www.w3.org/2000/svg" style="fill-rule: evenodd; clip-rule: evenodd; stroke-linejoin: round; stroke-miterlimit: 2;">
  <g transform="matrix(1,0,0,1,-15.3071,-33.7904)">
    <path d="M78.945,50.261L112.873,69.849L112.873,109.026L78.945,128.615L45.017,109.026L45.017,69.849L78.945,50.261ZM78.945,55.51L108.328,72.474L108.328,106.402L78.945,123.366L49.563,106.402L49.563,72.474L78.945,55.51Z" style="fill: currentcolor;"/>
    <path d="M81.734,130.282L112.322,112.623C112.505,112.516 112.733,112.52 112.913,112.633C113.093,112.746 113.2,112.95 113.179,113.161C112.64,118.559 110.348,133.056 104.708,137.948C103.807,138.729 102.996,139.609 101.913,140.11C94.917,143.312 87.136,145.085 78.945,145.085L78.621,145.084C56.49,144.958 37.403,131.885 28.556,113.067C28.372,112.658 28.473,112.177 28.806,111.876C29.138,111.575 29.627,111.523 30.016,111.748C45.395,120.697 57.891,122.655 63.432,123.172C64.065,123.223 64.679,123.413 65.229,123.731C67.505,125.043 73.826,128.937 76.852,130.684C76.856,130.698 77.831,134.24 78.706,135.333C78.706,135.333 79.232,133.054 81.687,130.335C81.703,130.318 81.719,130.3 81.734,130.282ZM115.341,86.023C115.162,85.904 115.055,85.703 115.055,85.488C115.055,83.767 115.055,76.051 115.055,73.239C115.054,73.021 115.165,72.817 115.348,72.698C115.531,72.579 115.762,72.561 115.961,72.651C121.05,75.553 132.022,87.733 130.15,110.778C130.12,111.145 130.04,111.505 129.893,111.842C126.184,120.255 120.451,127.58 113.312,133.195C113.008,133.427 112.585,133.421 112.289,133.18C111.992,132.939 111.899,132.525 112.065,132.181C113.77,128.087 115.793,120.979 115.624,110.523C115.681,110.401 115.712,110.267 115.712,110.128L115.712,92.133C117.432,90.678 120.093,88.51 120.093,88.51C119.45,88.33 116.917,87.052 115.341,86.023ZM25.19,103.87C24.696,102.026 24.293,100.142 23.989,98.225L23.983,98.229C22.799,94.099 17.719,90.801 15.57,89.563C15.399,89.467 15.297,89.281 15.308,89.085C15.318,88.889 15.439,88.715 15.619,88.637C21.102,86.319 23.316,82.664 23.75,81.859C30.441,98.658 40.264,107.934 42.178,109.635L42.178,110.128C42.178,110.46 42.356,110.768 42.644,110.934L57.598,118.601C57.598,118.601 57.589,119.346 57.585,119.637C57.585,119.665 57.572,119.693 57.55,119.711C57.528,119.73 57.499,119.738 57.471,119.734C40.463,117.232 29.385,107.75 25.19,103.87ZM42.924,93.796L42.924,105.092C42.924,105.353 42.769,105.588 42.529,105.69C42.289,105.792 41.266,105.346 41.079,105.165C39.451,103.413 36.671,99.924 32.062,92.967C26.891,85.163 25.655,78.243 25.571,73.657C31.14,54.816 46.425,40.126 65.613,35.401C65.838,35.349 66.07,35.456 66.178,35.661C66.285,35.866 66.24,36.118 66.069,36.274C51.382,49.431 48.609,62.024 48.085,65.896L43.433,68.161C43.145,68.327 42.967,68.635 42.967,68.968L42.924,85.793C42.057,86.588 39.809,87.465 37.67,88.247C37.67,88.247 41.667,91.447 42.924,93.796ZM115.712,68.746C115.711,68.414 115.534,68.108 115.246,67.942C115.246,67.942 99.234,58.697 95.093,56.306C94.963,56.232 94.897,56.081 94.932,55.935C94.967,55.79 95.094,55.685 95.243,55.678C115.799,54.589 125.352,61.491 128.699,64.783C128.882,64.966 129.033,65.178 129.145,65.411C131.57,70.464 133.255,75.941 134.058,81.698L134.058,81.698C134.058,81.698 136.081,86.02 142.271,88.637C142.452,88.715 142.572,88.889 142.583,89.085C142.593,89.281 142.492,89.467 142.32,89.563C140.171,90.801 135.092,94.099 133.908,98.229C133.907,98.229 133.907,98.23 133.906,98.229C133.906,98.229 133.906,98.228 133.906,98.228C133.904,98.227 133.902,98.225 133.902,98.225C133.901,98.226 133.901,98.226 133.901,98.227C133.824,98.707 133.395,99.05 132.909,99.019C132.424,98.989 132.042,98.594 132.026,98.108C131.957,96.36 131.808,94.461 131.558,92.406C131.558,92.405 131.558,92.404 131.558,92.404C131.471,90.685 129.047,78.166 115.712,68.746ZM76.925,48.511L51.745,62.687C51.64,62.748 51.508,62.742 51.409,62.671C51.309,62.599 51.261,62.476 51.286,62.357C54.411,47.495 67.833,38.142 71.082,35.787C72.058,35.079 72.992,34.539 73.829,34.127C74.002,34.043 74.19,33.991 74.383,33.975C75.887,33.853 77.409,33.79 78.945,33.79L79.274,33.791C98.86,33.905 116.063,44.159 125.894,59.567C125.977,59.701 125.962,59.874 125.857,59.991C125.752,60.108 125.582,60.142 125.44,60.073C108.409,51.851 93.406,53.058 90.572,53.383C90.288,53.421 90,53.364 89.752,53.221C88.473,52.484 84.217,50.027 81.58,48.504C79.926,46.614 78.925,43.09 78.925,43.09C77.478,44.23 76.925,48.511 76.925,48.511Z" style="fill: currentcolor;" />
  </g>
</svg>
