<svg width="100%" height="100%" viewBox="0 0 95 95" xmlns="http://www.w3.org/2000/svg" style=" fill-rule: evenodd; clip-rule: evenodd; stroke-linecap: round; stroke-miterlimit: 1.5;" >
  <g transform="matrix(0.905613,0,0,0.905613,-478.483,-507.088)">
    <g>
      <g>
        <path d="M529.629,612.389L580.803,561.215L631.433,612.389L581.075,663.292L529.629,612.389Z" style="fill: none; stroke: currentcolor; stroke-width: 2.55px;"/>
        <g transform="matrix(1.14628,0,0,1.14628,-84.3538,-92.152)">
          <path d="M580.221,575.927C558.946,575.927 541.673,593.2 541.673,614.475C541.673,635.751 558.946,653.024 580.221,653.024C601.496,653.024 618.769,635.751 618.769,614.475C618.769,593.2 601.496,575.927 580.221,575.927ZM580.221,578.152C600.268,578.152 616.544,594.428 616.544,614.475C616.544,634.523 600.268,650.799 580.221,650.799C560.174,650.799 543.898,634.523 543.898,614.475C543.898,594.428 560.174,578.152 580.221,578.152Z" style="fill: currentcolor;" />
        </g>
        <g transform="matrix(1.09756,0,0,1.09756,-56.6619,-59.7036)">
          <path d="M611.859,619.818C615.134,641.363 620.273,652.131 620.273,652.131C620.273,652.131 607.603,644.189 591.087,642.515C601.361,639.035 609.29,630.471 611.859,619.818ZM610.609,630.911C611.895,637.05 613.259,641.937 614.423,645.574C610.897,644.023 606.308,642.3 601.03,641.009C604.856,638.317 608.119,634.881 610.609,630.911L610.609,630.911Z" style="fill: currentcolor;" />
        </g>
        <g transform="matrix(1.09756,0,0,1.09756,-56.6619,-59.7036)">
          <path d="M551.272,624.799C555.166,633.895 563.15,640.828 572.912,643.246C555.421,645.91 542.15,652.131 542.15,652.131C542.15,652.131 547.913,643.518 551.272,624.799ZM552.679,633.511C555.275,636.923 558.479,639.846 562.13,642.115C556.822,643.392 552.211,644.852 548.647,646.116C549.933,642.934 551.371,638.75 552.679,633.511L552.679,633.511Z" style="fill: currentcolor;" />
        </g>
        <g transform="matrix(1.09756,0,0,1.09756,-56.6619,-59.7036)">
          <path d="M593.466,582.765C608.644,579.777 620.817,572.647 620.817,572.647C620.817,572.647 612.799,584.931 611.106,601.941C608.214,593.322 601.747,586.342 593.466,582.765ZM601.878,583.979C606.354,582.662 610.369,581.124 613.638,579.716C612.222,583.045 610.731,587.189 609.585,591.93C607.449,588.891 604.846,586.206 601.878,583.98L601.878,583.979Z" style="fill: currentcolor;" />
        </g>
        <g transform="matrix(1.09756,0,0,1.09756,-56.6619,-59.7036)">
          <path d="M551.033,600.192C547.85,585.182 540.789,571.831 540.789,571.831C540.789,571.831 553.304,579.406 568.349,582.621C560.487,585.923 554.215,592.271 551.033,600.192ZM552.126,591.621C550.689,586.815 549.029,582.429 547.559,578.904C550.977,580.471 555.241,582.219 559.98,583.706C556.962,585.912 554.308,588.585 552.127,591.621L552.126,591.621Z" style="fill: currentcolor;" />
        </g>
        <path d="M529.629,612.389L580.803,561.215L631.433,612.389L581.075,663.292L529.629,612.389Z" style="fill: none; stroke: currentcolor; stroke-width: 2.55px;" />
        <g transform="matrix(0.968825,0,0,0.968825,18.6111,16.8916)">
          <path d="M580.221,574.533C558.176,574.533 540.278,592.43 540.278,614.475C540.278,636.52 558.176,654.418 580.221,654.418C602.266,654.418 620.164,636.52 620.164,614.475C620.164,592.43 602.266,574.533 580.221,574.533ZM580.221,578.152C600.268,578.152 616.544,594.428 616.544,614.475C616.544,634.523 600.268,650.799 580.221,650.799C560.174,650.799 543.898,634.523 543.898,614.475C543.898,594.428 560.174,578.152 580.221,578.152Z" style="fill: currentcolor;" />
        </g>
      </g>
    </g>
  </g>
</svg>
